<svg width="27" height="28" viewBox="0 0 27 28" fill="none" xmlns="http://www.w3.org/2000/svg">
<path d="M24.7917 0.5H1.45833C1.07156 0.5 0.700626 0.658035 0.427136 0.93934C0.153645 1.22064 0 1.60218 0 2V26C0 26.3978 0.153645 26.7794 0.427136 27.0607C0.700626 27.342 1.07156 27.5 1.45833 27.5H14.0219V17.06H10.6123V12.9725H14.0219V9.9725C14.0219 6.485 16.0927 4.5845 19.126 4.5845C20.1454 4.5815 21.1662 4.6355 22.1812 4.745V8.375H20.0885C18.4435 8.375 18.1227 9.182 18.1227 10.3625V12.965H22.0558L21.5454 17.0525H18.1213V27.5H24.7917C25.1784 27.5 25.5494 27.342 25.8229 27.0607C26.0964 26.7794 26.25 26.3978 26.25 26V2C26.25 1.60218 26.0964 1.22064 25.8229 0.93934C25.5494 0.658035 25.1784 0.5 24.7917 0.5Z" fill="white"/>
</svg>
