<svg width="426" height="267" viewBox="0 0 426 267" fill="none" xmlns="http://www.w3.org/2000/svg">
<path d="M211.808 266.896H332.608C404.368 266.896 449.232 189.232 413.36 127.08C377.496 64.928 287.76 64.912 251.904 127.08L188.504 236.88M302.696 190.992C298.827 184.29 297.033 176.59 297.54 168.868C298.047 161.146 300.833 153.748 305.544 147.609C310.256 141.47 316.683 136.866 324.011 134.379C331.339 131.892 339.241 131.634 346.715 133.638C354.19 135.642 360.903 139.817 366.005 145.636C371.107 151.455 374.369 158.656 375.378 166.329C376.387 174.002 375.098 181.802 371.675 188.742C368.251 195.682 362.846 201.451 356.144 205.32C347.156 210.508 336.476 211.912 326.452 209.225C316.429 206.538 307.884 199.98 302.696 190.992V190.992Z" fill="#03A0E5"/>
<path d="M370.472 151.872C365.339 142.951 357.127 136.21 347.377 132.914C337.627 129.619 327.01 129.994 317.517 133.971C308.025 137.948 300.31 145.253 295.821 154.514C291.332 163.775 290.377 174.357 293.136 184.272L284.496 199.232C284.298 199.575 284.193 199.964 284.193 200.36C284.193 200.755 284.297 201.144 284.495 201.487C284.693 201.83 284.978 202.115 285.32 202.313C285.663 202.511 286.052 202.616 286.448 202.616H303.72C310.923 209.967 320.563 214.437 330.828 215.185C341.093 215.933 351.279 212.909 359.473 206.681C367.667 200.452 373.305 191.446 375.331 181.355C377.356 171.263 375.628 160.78 370.472 151.872V151.872Z" fill="white"/>
<path d="M327.448 161.32C328.121 160.934 328.663 160.357 329.008 159.663C329.352 158.968 329.483 158.187 329.384 157.418C329.284 156.649 328.959 155.927 328.45 155.343C327.94 154.759 327.268 154.339 326.52 154.137C325.772 153.934 324.98 153.958 324.245 154.206C323.511 154.453 322.866 154.913 322.392 155.527C321.919 156.14 321.638 156.881 321.585 157.654C321.533 158.428 321.71 159.2 322.096 159.872C322.617 160.771 323.472 161.427 324.474 161.698C325.477 161.969 326.546 161.834 327.448 161.32V161.32Z" fill="#03A0E5"/>
<path d="M336.024 176.272C336.698 175.889 337.244 175.315 337.591 174.622C337.939 173.929 338.074 173.149 337.978 172.379C337.882 171.61 337.56 170.886 337.053 170.299C336.546 169.713 335.877 169.29 335.129 169.084C334.381 168.878 333.59 168.899 332.854 169.143C332.118 169.387 331.471 169.844 330.995 170.456C330.518 171.067 330.234 171.807 330.178 172.58C330.122 173.353 330.297 174.126 330.68 174.8C331.193 175.704 332.045 176.367 333.047 176.643C334.049 176.919 335.12 176.785 336.024 176.272Z" fill="#03A0E5"/>
<path d="M344.608 191.224C345.279 190.839 345.82 190.263 346.164 189.57C346.507 188.877 346.638 188.098 346.539 187.331C346.44 186.564 346.115 185.843 345.607 185.26C345.099 184.678 344.429 184.259 343.682 184.056C342.936 183.854 342.146 183.878 341.413 184.124C340.68 184.37 340.036 184.829 339.563 185.441C339.09 186.053 338.81 186.791 338.756 187.563C338.703 188.335 338.88 189.105 339.264 189.776C339.519 190.223 339.86 190.615 340.266 190.93C340.673 191.245 341.138 191.477 341.635 191.611C342.132 191.746 342.65 191.781 343.16 191.714C343.671 191.648 344.163 191.481 344.608 191.224V191.224Z" fill="#03A0E5"/>
<path d="M234.48 231.64L174.08 127.072C138.184 64.936 48.4804 64.952 12.6164 127.072C-23.2476 189.224 21.6164 266.896 93.4164 266.888H213.128M69.9284 205.288C63.227 201.418 57.8235 195.649 54.4011 188.708C50.9787 181.768 49.6911 173.969 50.701 166.296C51.711 158.624 54.9732 151.424 60.0752 145.606C65.1772 139.788 71.8898 135.613 79.3643 133.609C86.8388 131.606 94.7395 131.864 102.067 134.35C109.395 136.837 115.821 141.441 120.533 147.579C125.245 153.718 128.031 161.115 128.538 168.837C129.046 176.559 127.252 184.258 123.384 190.96C120.818 195.422 117.396 199.333 113.315 202.47C109.235 205.608 104.575 207.909 99.6035 209.243C94.632 210.577 89.4463 210.917 84.3432 210.244C79.2401 209.571 74.3199 207.898 69.8644 205.32L69.9284 205.288Z" fill="#FFDA2D"/>
<path d="M55.5284 151.864C60.6602 142.94 68.8731 136.197 78.6248 132.9C88.3766 129.603 98.9965 129.979 108.491 133.957C117.985 137.936 125.7 145.243 130.188 154.507C134.676 163.772 135.628 174.356 132.864 184.272L141.504 199.224C141.702 199.567 141.807 199.956 141.807 200.352C141.807 200.747 141.703 201.136 141.505 201.479C141.307 201.822 141.023 202.107 140.68 202.305C140.337 202.503 139.948 202.608 139.552 202.608H122.28C115.077 209.965 105.436 214.438 95.1671 215.188C84.8985 215.938 74.7092 212.914 66.5132 206.682C58.3171 200.451 52.6782 191.441 50.6556 181.346C48.6329 171.251 50.3657 160.764 55.5284 151.856V151.864Z" fill="white"/>
<path d="M98.5518 161.312C97.8795 160.926 97.3368 160.349 96.9923 159.655C96.6478 158.96 96.517 158.179 96.6163 157.41C96.7157 156.641 97.0408 155.919 97.5506 155.335C98.0603 154.751 98.7319 154.331 99.4802 154.129C100.229 153.926 101.02 153.95 101.755 154.198C102.49 154.445 103.134 154.905 103.608 155.519C104.081 156.132 104.362 156.873 104.415 157.646C104.468 158.42 104.29 159.192 103.904 159.864C103.648 160.311 103.306 160.702 102.898 161.017C102.49 161.331 102.025 161.562 101.528 161.697C101.031 161.831 100.512 161.866 100.002 161.8C99.4909 161.734 98.9983 161.568 98.5518 161.312V161.312Z" fill="#FFDA2D"/>
<path d="M89.9764 176.272C89.3022 175.889 88.7566 175.315 88.4088 174.622C88.061 173.929 87.9264 173.149 88.0222 172.379C88.118 171.61 88.4398 170.886 88.9469 170.299C89.454 169.713 90.1237 169.29 90.8712 169.084C91.6187 168.878 92.4105 168.899 93.1464 169.143C93.8823 169.387 94.5293 169.844 95.0055 170.456C95.4818 171.067 95.7659 171.807 95.8219 172.58C95.878 173.353 95.7034 174.126 95.3204 174.8C94.8068 175.704 93.9553 176.367 92.9532 176.643C91.951 176.919 90.8803 176.785 89.9764 176.272Z" fill="#FFDA2D"/>
<path d="M81.3918 191.224C80.7184 190.839 80.1745 190.263 79.8288 189.568C79.483 188.874 79.3512 188.092 79.4498 187.323C79.5484 186.554 79.8731 185.831 80.3827 185.246C80.8924 184.661 81.5641 184.241 82.3128 184.038C83.0615 183.835 83.8536 183.859 84.5888 184.106C85.3239 184.354 85.9692 184.814 86.4427 185.428C86.9163 186.043 87.1969 186.784 87.2491 187.558C87.3013 188.332 87.1226 189.104 86.7358 189.776C86.2182 190.676 85.365 191.333 84.3632 191.605C83.3613 191.876 82.2928 191.739 81.3918 191.224Z" fill="#FFDA2D"/>
<path d="M132.256 139.464L202.248 260.68C203.336 262.566 204.902 264.132 206.787 265.22C208.672 266.309 210.811 266.882 212.988 266.882C215.165 266.882 217.304 266.309 219.189 265.22C221.074 264.132 222.64 262.566 223.728 260.68L293.72 139.472C329.6 77.32 284.744 -0.359985 213 -0.359985C141.224 -0.359985 96.376 77.32 132.256 139.464ZM173.856 88.32C173.854 80.5796 176.148 73.0126 180.447 66.5759C184.746 60.1391 190.857 55.1217 198.008 52.1581C205.159 49.1946 213.027 48.4179 220.619 49.9264C228.211 51.435 235.185 55.1609 240.66 60.633C246.134 66.1052 249.863 73.0778 251.374 80.6691C252.886 88.2604 252.113 96.1295 249.152 103.281C246.191 110.433 241.176 116.546 234.741 120.848C228.306 125.15 220.74 127.446 213 127.448C207.861 127.449 202.771 126.438 198.023 124.472C193.274 122.506 188.959 119.624 185.324 115.991C181.689 112.358 178.806 108.044 176.838 103.296C174.87 98.5483 173.857 93.4594 173.856 88.32V88.32Z" fill="#54B396"/>
<path d="M255.544 87.688C255.56 79.7691 253.354 72.0043 249.178 65.2763C245.001 58.5483 239.021 53.1269 231.917 49.6282C224.813 46.1295 216.869 44.6938 208.99 45.4844C201.111 46.2749 193.611 49.26 187.344 54.1003C181.076 58.9406 176.292 65.442 173.535 72.8656C170.779 80.2893 170.16 88.3374 171.749 96.0952C173.338 103.853 177.072 111.01 182.525 116.751C187.979 122.493 194.934 126.59 202.6 128.576L211.232 143.536C211.429 143.88 211.714 144.166 212.058 144.365C212.401 144.563 212.791 144.668 213.188 144.668C213.584 144.668 213.974 144.563 214.318 144.365C214.661 144.166 214.946 143.88 215.144 143.536L223.776 128.584C232.856 126.255 240.904 120.973 246.655 113.57C252.406 106.167 255.532 97.0623 255.544 87.688V87.688Z" fill="white"/>
<path d="M226.544 87.392C226.542 86.6167 226.771 85.8583 227.2 85.2128C227.63 84.5673 228.241 84.0636 228.956 83.7654C229.672 83.4673 230.46 83.3881 231.221 83.5378C231.982 83.6875 232.681 84.0594 233.23 84.6065C233.779 85.1536 234.154 85.8513 234.307 86.6114C234.46 87.3715 234.384 88.1598 234.089 88.8767C233.793 89.5936 233.292 90.2068 232.648 90.6389C232.005 91.0709 231.247 91.3024 230.472 91.304C229.957 91.3061 229.446 91.2064 228.97 91.0108C228.494 90.8151 228.06 90.5273 227.695 90.1639C227.33 89.8004 227.041 89.3684 226.843 88.8927C226.646 88.4171 226.544 87.9071 226.544 87.392V87.392Z" fill="#54B396"/>
<path d="M209.304 87.432C209.302 86.6567 209.531 85.8984 209.96 85.2528C210.389 84.6073 211.001 84.1036 211.716 83.8055C212.432 83.5073 213.22 83.4281 213.981 83.5778C214.741 83.7275 215.441 84.0994 215.99 84.6465C216.539 85.1936 216.914 85.8913 217.067 86.6514C217.22 87.4115 217.144 88.1999 216.848 88.9167C216.553 89.6336 216.052 90.2469 215.408 90.6789C214.764 91.111 214.007 91.3424 213.232 91.344C212.717 91.3461 212.206 91.2465 211.73 91.0508C211.253 90.8552 210.82 90.5674 210.455 90.2039C210.09 89.8404 209.801 89.4085 209.603 88.9328C209.405 88.4571 209.304 87.9471 209.304 87.432Z" fill="#54B396"/>
<path d="M192.056 87.472C192.054 86.6967 192.282 85.9383 192.712 85.2928C193.141 84.6473 193.752 84.1436 194.468 83.8455C195.184 83.5473 195.972 83.4681 196.733 83.6178C197.493 83.7675 198.193 84.1394 198.742 84.6865C199.291 85.2336 199.666 85.9313 199.819 86.6914C199.972 87.4515 199.896 88.2398 199.6 88.9567C199.305 89.6736 198.804 90.2869 198.16 90.7189C197.516 91.151 196.759 91.3824 195.984 91.384C194.945 91.384 193.948 90.9724 193.212 90.2392C192.476 89.506 192.06 88.511 192.056 87.472V87.472Z" fill="#54B396"/>
</svg>
