<svg width="29" height="30" viewBox="0 0 29 30" fill="none" xmlns="http://www.w3.org/2000/svg">
<path d="M14.6247 10.3137C12.0442 10.3137 9.93835 12.4196 9.93835 15C9.93835 17.5805 12.0442 19.6863 14.6247 19.6863C17.2051 19.6863 19.311 17.5805 19.311 15C19.311 12.4196 17.2051 10.3137 14.6247 10.3137ZM28.6801 15C28.6801 13.0594 28.6977 11.1363 28.5887 9.19924C28.4798 6.94924 27.9665 4.95236 26.3212 3.30705C24.6723 1.65822 22.679 1.14846 20.429 1.03947C18.4883 0.930489 16.5653 0.948067 14.6282 0.948067C12.6876 0.948067 10.7645 0.930489 8.82741 1.03947C6.57741 1.14846 4.58054 1.66174 2.93523 3.30705C1.2864 4.95588 0.776632 6.94924 0.667647 9.19924C0.558663 11.1399 0.576241 13.0629 0.576241 15C0.576241 16.9371 0.558663 18.8637 0.667647 20.8008C0.776632 23.0508 1.28991 25.0477 2.93523 26.693C4.58405 28.3418 6.57741 28.8516 8.82741 28.9606C10.768 29.0695 12.6911 29.052 14.6282 29.052C16.5688 29.052 18.4919 29.0695 20.429 28.9606C22.679 28.8516 24.6759 28.3383 26.3212 26.693C27.97 25.0442 28.4798 23.0508 28.5887 20.8008C28.7012 18.8637 28.6801 16.9406 28.6801 15ZM14.6247 22.2106C10.6344 22.2106 7.41413 18.9903 7.41413 15C7.41413 11.0098 10.6344 7.78947 14.6247 7.78947C18.6149 7.78947 21.8352 11.0098 21.8352 15C21.8352 18.9903 18.6149 22.2106 14.6247 22.2106ZM22.1305 9.17814C21.1989 9.17814 20.4466 8.4258 20.4466 7.49416C20.4466 6.56252 21.1989 5.81018 22.1305 5.81018C23.0622 5.81018 23.8145 6.56252 23.8145 7.49416C23.8148 7.71538 23.7714 7.93449 23.6869 8.13892C23.6024 8.34336 23.4783 8.52911 23.3219 8.68554C23.1655 8.84196 22.9797 8.966 22.7753 9.05053C22.5709 9.13506 22.3518 9.17842 22.1305 9.17814Z" fill="white"/>
</svg>
