<svg width="1024" height="498" viewBox="0 0 1024 498" fill="none" xmlns="http://www.w3.org/2000/svg">
<mask id="mask0_66_10" style="mask-type:alpha" maskUnits="userSpaceOnUse" x="-1" y="0" width="1025" height="494">
<rect x="-0.000976562" width="1024" height="494" fill="#D9D9D9"/>
</mask>
<g mask="url(#mask0_66_10)">
<mask id="mask1_66_10" style="mask-type:alpha" maskUnits="userSpaceOnUse" x="-1" y="-2" width="1027" height="499">
<path d="M1025.19 2.29404L1.19604 -1.64675L-0.705079 492.35L1023.29 496.29L1025.19 2.29404Z" fill="#049BDD"/>
</mask>
<g mask="url(#mask1_66_10)">
<path d="M899.006 437.963C823.556 494.196 613.886 493.217 525.428 490.198C504.3 489.414 489.617 469.714 494.904 449.242C516.711 362.833 576.271 162.406 651.721 106.172C743.262 37.9462 872.825 56.9122 941.111 148.535C1009.37 240.123 990.547 369.737 899.006 437.963Z" fill="url(#paint0_linear_66_10)" fill-opacity="0.8"/>
</g>
<mask id="mask2_66_10" style="mask-type:alpha" maskUnits="userSpaceOnUse" x="-168" y="169" width="475" height="450">
<path d="M-29.5566 618.243L306.594 332.165L168.584 169.999L-167.567 456.077L-29.5566 618.243Z" fill="#049BDD"/>
</mask>
<g mask="url(#mask2_66_10)">
<path d="M94.4508 481.563C82.4101 532.331 -7.04876 606.583 -45.7186 636.801C-54.9775 643.992 -68.2331 640.848 -73.2764 630.265C-94.7804 585.775 -140.843 479.383 -128.803 428.614C-114.194 367.018 -52.3754 328.939 9.27514 343.561C70.9024 358.177 109.059 419.967 94.4508 481.563Z" fill="url(#paint1_linear_66_10)" fill-opacity="0.8"/>
</g>
</g>
<defs>
<linearGradient id="paint0_linear_66_10" x1="911.054" y1="95.4016" x2="659.829" y2="482.183" gradientUnits="userSpaceOnUse">
<stop offset="0.0658112" stop-color="#5CD1AD"/>
<stop offset="1" stop-color="#62CAAA" stop-opacity="0.18"/>
</linearGradient>
<linearGradient id="paint1_linear_66_10" x1="-22.421" y1="331.683" x2="8.54774" y2="585.532" gradientUnits="userSpaceOnUse">
<stop offset="0.0658112" stop-color="#5CD1AD"/>
<stop offset="1" stop-color="#62CAAA" stop-opacity="0"/>
</linearGradient>
</defs>
</svg>
