<svg width="29" height="29" viewBox="0 0 29 29" fill="none" xmlns="http://www.w3.org/2000/svg">
<path d="M27 0H1.125C0.502734 0 0 0.516699 0 1.15625V27.75C0 28.3896 0.502734 28.9062 1.125 28.9062H27C27.6223 28.9062 28.125 28.3896 28.125 27.75V1.15625C28.125 0.516699 27.6223 0 27 0ZM21.6316 10.4677C21.6422 10.6375 21.6422 10.8146 21.6422 10.988C21.6422 16.2923 17.7117 22.4023 10.5293 22.4023C8.31445 22.4023 6.26133 21.7411 4.53164 20.6029C4.84805 20.6391 5.15039 20.6535 5.47383 20.6535C7.30195 20.6535 8.98242 20.0176 10.3219 18.9408C8.60625 18.9047 7.16484 17.7484 6.67266 16.1586C7.27383 16.2489 7.81523 16.2489 8.43398 16.0863C7.5506 15.9019 6.75659 15.4088 6.18685 14.6908C5.61712 13.9729 5.30679 13.0743 5.30859 12.1479V12.0973C5.82539 12.3972 6.43359 12.5814 7.06992 12.6067C6.53499 12.2403 6.0963 11.7439 5.79273 11.1615C5.48917 10.5791 5.33012 9.92876 5.32969 9.26807C5.32969 8.52012 5.51953 7.83721 5.86055 7.24463C6.84106 8.4852 8.0646 9.49983 9.45163 10.2226C10.8387 10.9453 12.3582 11.36 13.9113 11.4396C13.3594 8.71162 15.3422 6.50391 17.7258 6.50391C18.8508 6.50391 19.8633 6.98809 20.577 7.76855C21.4594 7.59873 22.3031 7.25908 23.0555 6.80381C22.7637 7.73242 22.152 8.5165 21.3398 9.01152C22.1273 8.9248 22.8867 8.70078 23.5898 8.38643C23.059 9.18857 22.3945 9.90039 21.6316 10.4677Z" fill="white"/>
</svg>
